<svg xmlns="http://www.w3.org/2000/svg" width="1200" height="760" viewBox="0 0 1200 760">
<defs><linearGradient id="bg" x1="0" x2="1"><stop stop-color="#050816"/><stop offset="1" stop-color="#0b1220"/></linearGradient><linearGradient id="g0" x1="0" x2="1"><stop stop-color="#7c3aed"/><stop offset="1" stop-color="#22d3ee"/></linearGradient><linearGradient id="g1" x1="0" x2="1"><stop stop-color="#22d3ee"/><stop offset="1" stop-color="#7c3aed"/></linearGradient><filter id="glow"><feGaussianBlur stdDeviation="20" result="b"/><feMerge><feMergeNode in="b"/><feMergeNode in="SourceGraphic"/></feMerge></filter></defs>
<rect width="1200" height="760" fill="url(#bg)"/><circle cx="930" cy="80" r="220" fill="#7c3aed" opacity=".14" filter="url(#glow)"/><circle cx="360" cy="520" r="240" fill="#22d3ee" opacity=".10" filter="url(#glow)"/>
<rect x="28" y="28" width="1144" height="704" rx="40" fill="#0b1020" stroke="#25304a"/>
<rect x="28" y="28" width="1144" height="64" rx="40" fill="#111827"/><circle cx="70" cy="60" r="9" fill="#ef4444"/><circle cx="98" cy="60" r="9" fill="#f59e0b"/><circle cx="126" cy="60" r="9" fill="#22c55e"/><text x="160" y="68" fill="#f8fafc" font-family="Arial" font-size="24" font-weight="700">Novaris ERP</text>
<rect x="36" y="120" width="180" height="560" rx="28" fill="#0d1528" stroke="#263452"/><rect x="54" y="140" width="135" height="26" rx="13" fill="#162034" stroke="#334155"/><text x="72" y="158" fill="#cbd5e1" font-size="13">Finance</text><rect x="54" y="186" width="135" height="26" rx="13" fill="#162034" stroke="#334155"/><text x="72" y="204" fill="#cbd5e1" font-size="13">HR</text><rect x="54" y="232" width="135" height="26" rx="13" fill="#162034" stroke="#334155"/><text x="72" y="250" fill="#cbd5e1" font-size="13">Inventory</text><rect x="54" y="278" width="135" height="26" rx="13" fill="#162034" stroke="#334155"/><text x="72" y="296" fill="#cbd5e1" font-size="13">Procurement</text><rect x="230" y="74" width="170" height="70" rx="18" fill="#111827" stroke="#263452"/><text x="248" y="103" fill="#94a3b8" font-size="12">Revenue</text><text x="248" y="129" fill="#f8fafc" font-size="24" font-weight="700">$8.4M</text><rect x="230" y="74" width="170" height="70" rx="18" fill="#111827" stroke="#263452"/><text x="248" y="103" fill="#94a3b8" font-size="12">Users</text><text x="248" y="129" fill="#f8fafc" font-size="24" font-weight="700">12.8K</text><rect x="230" y="74" width="170" height="70" rx="18" fill="#111827" stroke="#263452"/><text x="248" y="103" fill="#94a3b8" font-size="12">Approvals</text><text x="248" y="129" fill="#f8fafc" font-size="24" font-weight="700">99.9%</text>
<rect x="230" y="170" width="540" height="380" rx="30" fill="#0f172a" stroke="#27354f"/><rect x="260" y="205" width="250" height="120" rx="24" fill="#18243d" stroke="#334155"/><rect x="535" y="205" width="205" height="54" rx="16" fill="#172036" stroke="#334155"/><rect x="535" y="278" width="205" height="54" rx="16" fill="#172036" stroke="#334155"/><rect x="535" y="351" width="205" height="54" rx="16" fill="#172036" stroke="#334155"/><path d="M430 330 C470 230,520 370,560 280 S640 310,700 190" fill="none" stroke="#22d3ee" stroke-width="5"/><path d="M430 330 C470 230,520 370,560 280 S640 310,700 190" fill="none" stroke="#7c3aed" stroke-width="2"/><circle cx="430" cy="330" r="6" fill="#7c3aed"/><circle cx="700" cy="190" r="6" fill="#22d3ee"/>
<rect x="815" y="132" width="300" height="170" rx="28" fill="#111827" stroke="#293750"/><text x="842" y="170" fill="#94a3b8" font-size="15">Live modules</text><rect x="842" y="198" width="220" height="12" rx="6" fill="url(#g0)"/><text x="842" y="250" fill="#e2e8f0" font-size="20" font-weight="700">Business-ready</text>
<rect x="815" y="332" width="300" height="170" rx="28" fill="#111827" stroke="#293750"/><text x="842" y="370" fill="#94a3b8" font-size="15">Security</text><rect x="842" y="398" width="190" height="12" rx="6" fill="url(#g1)"/><text x="842" y="450" fill="#e2e8f0" font-size="20" font-weight="700">Cloud scale</text>
<text x="70" y="710" fill="#64748b" font-size="13">Novaris Technology • Enterprise dashboard showcase</text></svg>