<svg xmlns="http://www.w3.org/2000/svg" width="1200" height="760" viewBox="0 0 1200 760">
<defs><linearGradient id="bg" x1="0" x2="1"><stop stop-color="#050816"/><stop offset="1" stop-color="#0b1220"/></linearGradient><linearGradient id="g0" x1="0" x2="1"><stop stop-color="#0ea5e9"/><stop offset="1" stop-color="#a78bfa"/></linearGradient><linearGradient id="g1" x1="0" x2="1"><stop stop-color="#a78bfa"/><stop offset="1" stop-color="#0ea5e9"/></linearGradient><filter id="glow"><feGaussianBlur stdDeviation="20" result="b"/><feMerge><feMergeNode in="b"/><feMergeNode in="SourceGraphic"/></feMerge></filter></defs>
<rect width="1200" height="760" fill="url(#bg)"/><circle cx="930" cy="80" r="220" fill="#0ea5e9" opacity=".14" filter="url(#glow)"/><circle cx="360" cy="520" r="240" fill="#a78bfa" opacity=".10" filter="url(#glow)"/>
<rect x="28" y="28" width="1144" height="704" rx="40" fill="#0b1020" stroke="#25304a"/>
<rect x="28" y="28" width="1144" height="64" rx="40" fill="#111827"/><circle cx="70" cy="60" r="9" fill="#ef4444"/><circle cx="98" cy="60" r="9" fill="#f59e0b"/><circle cx="126" cy="60" r="9" fill="#22c55e"/><text x="160" y="68" fill="#f8fafc" font-family="Arial" font-size="24" font-weight="700">Hospital Management</text>
<rect x="36" y="120" width="180" height="560" rx="28" fill="#0d1528" stroke="#263452"/><rect x="54" y="140" width="135" height="26" rx="13" fill="#162034" stroke="#334155"/><text x="72" y="158" fill="#cbd5e1" font-size="13">Patients</text><rect x="54" y="186" width="135" height="26" rx="13" fill="#162034" stroke="#334155"/><text x="72" y="204" fill="#cbd5e1" font-size="13">Appointments</text><rect x="54" y="232" width="135" height="26" rx="13" fill="#162034" stroke="#334155"/><text x="72" y="250" fill="#cbd5e1" font-size="13">Billing</text><rect x="54" y="278" width="135" height="26" rx="13" fill="#162034" stroke="#334155"/><text x="72" y="296" fill="#cbd5e1" font-size="13">Reports</text><rect x="230" y="74" width="170" height="70" rx="18" fill="#111827" stroke="#263452"/><text x="248" y="103" fill="#94a3b8" font-size="12">Patients</text><text x="248" y="129" fill="#f8fafc" font-size="24" font-weight="700">$8.4M</text><rect x="230" y="74" width="170" height="70" rx="18" fill="#111827" stroke="#263452"/><text x="248" y="103" fill="#94a3b8" font-size="12">Appointments</text><text x="248" y="129" fill="#f8fafc" font-size="24" font-weight="700">12.8K</text><rect x="230" y="74" width="170" height="70" rx="18" fill="#111827" stroke="#263452"/><text x="248" y="103" fill="#94a3b8" font-size="12">Revenue</text><text x="248" y="129" fill="#f8fafc" font-size="24" font-weight="700">99.9%</text>
<rect x="230" y="170" width="540" height="380" rx="30" fill="#0f172a" stroke="#27354f"/><rect x="260" y="205" width="250" height="120" rx="24" fill="#18243d" stroke="#334155"/><rect x="535" y="205" width="205" height="54" rx="16" fill="#172036" stroke="#334155"/><rect x="535" y="278" width="205" height="54" rx="16" fill="#172036" stroke="#334155"/><rect x="535" y="351" width="205" height="54" rx="16" fill="#172036" stroke="#334155"/><rect x="450" y="330" width="14" height="60" rx="7" fill="url(#g0)" opacity=".9"/><rect x="476" y="308" width="14" height="77" rx="7" fill="url(#g1)" opacity=".9"/><rect x="502" y="286" width="14" height="94" rx="7" fill="url(#g0)" opacity=".9"/><rect x="528" y="264" width="14" height="111" rx="7" fill="url(#g1)" opacity=".9"/><rect x="554" y="242" width="14" height="128" rx="7" fill="url(#g0)" opacity=".9"/><rect x="580" y="220" width="14" height="145" rx="7" fill="url(#g1)" opacity=".9"/><rect x="606" y="318" width="14" height="162" rx="7" fill="url(#g0)" opacity=".9"/><rect x="632" y="296" width="14" height="69" rx="7" fill="url(#g1)" opacity=".9"/><rect x="658" y="274" width="14" height="86" rx="7" fill="url(#g0)" opacity=".9"/><rect x="684" y="252" width="14" height="103" rx="7" fill="url(#g1)" opacity=".9"/>
<rect x="815" y="132" width="300" height="170" rx="28" fill="#111827" stroke="#293750"/><text x="842" y="170" fill="#94a3b8" font-size="15">Live modules</text><rect x="842" y="198" width="220" height="12" rx="6" fill="url(#g0)"/><text x="842" y="250" fill="#e2e8f0" font-size="20" font-weight="700">Business-ready</text>
<rect x="815" y="332" width="300" height="170" rx="28" fill="#111827" stroke="#293750"/><text x="842" y="370" fill="#94a3b8" font-size="15">Security</text><rect x="842" y="398" width="190" height="12" rx="6" fill="url(#g1)"/><text x="842" y="450" fill="#e2e8f0" font-size="20" font-weight="700">Cloud scale</text>
<text x="70" y="710" fill="#64748b" font-size="13">Novaris Technology • Enterprise dashboard showcase</text></svg>