<svg xmlns="http://www.w3.org/2000/svg" width="1200" height="760" viewBox="0 0 1200 760">
<defs><linearGradient id="bg" x1="0" x2="1"><stop stop-color="#050816"/><stop offset="1" stop-color="#0b1220"/></linearGradient><linearGradient id="g0" x1="0" x2="1"><stop stop-color="#14b8a6"/><stop offset="1" stop-color="#f59e0b"/></linearGradient><linearGradient id="g1" x1="0" x2="1"><stop stop-color="#f59e0b"/><stop offset="1" stop-color="#14b8a6"/></linearGradient><filter id="glow"><feGaussianBlur stdDeviation="20" result="b"/><feMerge><feMergeNode in="b"/><feMergeNode in="SourceGraphic"/></feMerge></filter></defs>
<rect width="1200" height="760" fill="url(#bg)"/><circle cx="930" cy="80" r="220" fill="#14b8a6" opacity=".14" filter="url(#glow)"/><circle cx="360" cy="520" r="240" fill="#f59e0b" opacity=".10" filter="url(#glow)"/>
<rect x="28" y="28" width="1144" height="704" rx="40" fill="#0b1020" stroke="#25304a"/>
<rect x="28" y="28" width="1144" height="64" rx="40" fill="#111827"/><circle cx="70" cy="60" r="9" fill="#ef4444"/><circle cx="98" cy="60" r="9" fill="#f59e0b"/><circle cx="126" cy="60" r="9" fill="#22c55e"/><text x="160" y="68" fill="#f8fafc" font-family="Arial" font-size="24" font-weight="700">Logistics Control</text>
<rect x="36" y="120" width="180" height="560" rx="28" fill="#0d1528" stroke="#263452"/><rect x="54" y="140" width="135" height="26" rx="13" fill="#162034" stroke="#334155"/><text x="72" y="158" fill="#cbd5e1" font-size="13">Fleet</text><rect x="54" y="186" width="135" height="26" rx="13" fill="#162034" stroke="#334155"/><text x="72" y="204" fill="#cbd5e1" font-size="13">Routes</text><rect x="54" y="232" width="135" height="26" rx="13" fill="#162034" stroke="#334155"/><text x="72" y="250" fill="#cbd5e1" font-size="13">Warehouse</text><rect x="54" y="278" width="135" height="26" rx="13" fill="#162034" stroke="#334155"/><text x="72" y="296" fill="#cbd5e1" font-size="13">Alerts</text><rect x="230" y="74" width="170" height="70" rx="18" fill="#111827" stroke="#263452"/><text x="248" y="103" fill="#94a3b8" font-size="12">On time</text><text x="248" y="129" fill="#f8fafc" font-size="24" font-weight="700">$8.4M</text><rect x="230" y="74" width="170" height="70" rx="18" fill="#111827" stroke="#263452"/><text x="248" y="103" fill="#94a3b8" font-size="12">Transit</text><text x="248" y="129" fill="#f8fafc" font-size="24" font-weight="700">12.8K</text><rect x="230" y="74" width="170" height="70" rx="18" fill="#111827" stroke="#263452"/><text x="248" y="103" fill="#94a3b8" font-size="12">Delivered</text><text x="248" y="129" fill="#f8fafc" font-size="24" font-weight="700">99.9%</text>
<rect x="230" y="170" width="540" height="380" rx="30" fill="#0f172a" stroke="#27354f"/><rect x="260" y="205" width="250" height="120" rx="24" fill="#18243d" stroke="#334155"/><rect x="535" y="205" width="205" height="54" rx="16" fill="#172036" stroke="#334155"/><rect x="535" y="278" width="205" height="54" rx="16" fill="#172036" stroke="#334155"/><rect x="535" y="351" width="205" height="54" rx="16" fill="#172036" stroke="#334155"/><rect x="420" y="145" width="320" height="310" rx="24" fill="#071827" stroke="#16354a"/><path d="M455 385 C510 320,560 380,610 250 S690 205,715 150" fill="none" stroke="#f59e0b" stroke-width="5"/><path d="M445 300 C520 260,610 340,720 255" fill="none" stroke="#14b8a6" stroke-width="4" opacity=".9"/><circle cx="455" cy="305" r="10" fill="#14b8a6"/><circle cx="500" cy="340" r="10" fill="#f59e0b"/><circle cx="545" cy="375" r="10" fill="#60a5fa"/><circle cx="590" cy="305" r="10" fill="#14b8a6"/><circle cx="635" cy="340" r="10" fill="#f59e0b"/><circle cx="680" cy="375" r="10" fill="#60a5fa"/>
<rect x="815" y="132" width="300" height="170" rx="28" fill="#111827" stroke="#293750"/><text x="842" y="170" fill="#94a3b8" font-size="15">Live modules</text><rect x="842" y="198" width="220" height="12" rx="6" fill="url(#g0)"/><text x="842" y="250" fill="#e2e8f0" font-size="20" font-weight="700">Business-ready</text>
<rect x="815" y="332" width="300" height="170" rx="28" fill="#111827" stroke="#293750"/><text x="842" y="370" fill="#94a3b8" font-size="15">Security</text><rect x="842" y="398" width="190" height="12" rx="6" fill="url(#g1)"/><text x="842" y="450" fill="#e2e8f0" font-size="20" font-weight="700">Cloud scale</text>
<text x="70" y="710" fill="#64748b" font-size="13">Novaris Technology • Enterprise dashboard showcase</text></svg>